<?xml version="1.0" encoding="UTF-8" standalone="no"?>
<!-- Created with Inkscape (http://www.inkscape.org/) -->

<svg
   width="80mm"
   height="30.000126mm"
   viewBox="0 0 80 30.000126"
   version="1.1"
   id="svg1"
   xmlns="http://www.w3.org/2000/svg"
   xmlns:svg="http://www.w3.org/2000/svg"
   xmlns:rdf="http://www.w3.org/1999/02/22-rdf-syntax-ns#"
   xmlns:cc="http://creativecommons.org/ns#"
   xmlns:dc="http://purl.org/dc/elements/1.1/">
  <title
     id="title1">DRY.FM Logo</title>
  <defs
     id="defs1" />
  <g
     id="layer1"
     transform="translate(-64.999995,-64.999942)">
    <g
       id="g14-7-2"
       transform="matrix(3.3333813,0,0,3.3202287,-178.33738,-330.09376)"
       style="fill:#00ff00">
      <path
         id="rect13-3-7"
         style="fill:#00ff00;fill-opacity:0.933333;stroke-width:0.200392"
         d="m 75.000211,118.99593 c -1.107978,0 -2.000049,0.8955 -2.000049,2.00787 v 5.01972 c 0,1.11237 0.892071,2.00797 2.000049,2.00797 h 2.999866 v -2.00797 h -2.999969 c -0.55399,0 -0.999921,-0.4477 -0.999921,-1.00388 v -4.01574 c 0,-0.55618 0.445931,-1.00398 0.999921,-1.00398 h 19.99966 c 0.55399,0 1.000024,0.4478 1.000024,1.00398 v 4.01574 c 0,0.55618 -0.446034,1.00388 -1.000024,1.00388 h -2.999866 v 2.00797 h 2.999866 c 1.107978,0 2.000049,-0.8956 2.000049,-2.00797 v -5.01972 c 0,-1.11237 -0.892071,-2.00787 -2.000049,-2.00787 z" />
      <path
         style="font-weight:800;font-size:5.32288px;font-family:'Jost*';-inkscape-font-specification:'Jost*, Ultra-Bold';letter-spacing:0px;fill:#00ff00;fill-opacity:0.933333;stroke-width:0.990056"
         d="m 75.650301,126.1293 h -1.394594 v -3.72601 h 1.394594 q 0.633423,0 1.085868,0.22888 0.457767,0.22356 0.70262,0.63875 0.250175,0.41518 0.250175,0.99538 0,0.58019 -0.250175,0.99537 -0.244853,0.41519 -0.70262,0.64407 -0.452445,0.22356 -1.085868,0.22356 z m -0.04258,-2.82112 h -0.282112 v 1.91623 h 0.282112 q 0.250176,0 0.479059,-0.0745 0.228884,-0.0798 0.377925,-0.28743 0.149041,-0.20759 0.149041,-0.59616 0,-0.38858 -0.149041,-0.59617 -0.149041,-0.20759 -0.377925,-0.28211 -0.228883,-0.0798 -0.479059,-0.0798 z m 2.634829,-0.90489 h 1.463791 q 0.505674,0 0.841015,0.15968 0.335342,0.15969 0.495028,0.4418 0.16501,0.28212 0.16501,0.64407 0,0.37793 -0.175655,0.67068 -0.175655,0.28744 -0.532288,0.43648 l 0.931504,1.3733 h -1.202971 l -0.734558,-1.23491 h -0.218238 v 1.23491 H 78.24255 Z m 1.378625,0.87295 h -0.345987 v 0.83569 h 0.345987 q 0.244853,0 0.377925,-0.10646 0.133072,-0.11178 0.133072,-0.31405 0,-0.19694 -0.133072,-0.3034 -0.133072,-0.11178 -0.377925,-0.11178 z m 4.311535,-0.87295 h 1.192325 l -1.320074,2.23561 v 1.4904 H 82.75103 v -1.47976 l -1.325397,-2.24625 h 1.192325 l 0.660037,1.3041 z m 0.958112,3.32147 q 0,-0.22888 0.154363,-0.38857 0.159687,-0.16501 0.409862,-0.16501 0.244853,0 0.399216,0.16501 0.159686,0.15969 0.159686,0.38857 0,0.22357 -0.159686,0.38857 -0.154363,0.15969 -0.399216,0.15969 -0.250175,0 -0.409862,-0.15969 -0.154363,-0.165 -0.154363,-0.38857 z m 1.820427,-3.32147 h 2.368682 v 0.87827 h -1.378626 v 0.63342 h 1.325397 v 0.81441 h -1.325397 v 1.39991 h -0.990056 z m 4.119911,2.01205 -0.207593,1.71396 h -1.096513 l 0.644069,-3.91231 1.618155,2.14512 1.623478,-2.14512 0.644069,3.91231 h -1.096513 l -0.207593,-1.71396 -0.963441,1.36798 z"
         id="text11-6-9"
         transform="scale(1.0100254,0.99007407)"
         aria-label="DRY.FM" />
      <path
         style="font-weight:600;font-size:2.6178px;font-family:'Jost*';-inkscape-font-specification:'Jost*, Semi-Bold';letter-spacing:1.05002px;fill:#00ff00;fill-opacity:0.933333;stroke-width:0.486913"
         d="m 80.4474,125.43779 -0.117801,1.02879 h -0.390052 l 0.272251,-1.92408 0.767016,1.18325 0.767015,-1.18325 0.272251,1.92408 h -0.390052 l -0.117801,-1.02879 -0.531413,0.85864 z m 2.900803,-0.80367 h 0.374345 v 1.20681 q 0,0.15707 0.08115,0.25393 0.08377,0.0942 0.246073,0.0942 0.162304,0 0.243456,-0.0942 0.08377,-0.0969 0.08377,-0.25393 v -1.20681 h 0.374346 v 1.23037 q 0,0.21466 -0.09162,0.36387 -0.09162,0.1466 -0.251309,0.22252 -0.157068,0.0759 -0.358639,0.0759 -0.20157,0 -0.361256,-0.0759 -0.157068,-0.0759 -0.248691,-0.22252 -0.09162,-0.14921 -0.09162,-0.36387 z m 2.995046,1.21728 q 0.08639,0.15445 0.198952,0.24607 0.115184,0.0916 0.26178,0.0916 0.112566,0 0.183246,-0.0576 0.07068,-0.0576 0.07068,-0.15706 0,-0.0838 -0.0445,-0.13613 -0.04188,-0.055 -0.128272,-0.0942 -0.08377,-0.0419 -0.206806,-0.089 -0.06806,-0.0236 -0.151832,-0.0628 -0.08377,-0.0419 -0.159686,-0.10471 -0.07592,-0.0655 -0.125655,-0.15969 -0.04974,-0.0942 -0.04974,-0.22251 0,-0.15707 0.07853,-0.26964 0.08115,-0.11518 0.217278,-0.17539 0.138743,-0.0628 0.3089,-0.0628 0.172775,0 0.301047,0.0602 0.128272,0.0576 0.212042,0.14922 0.08639,0.089 0.133508,0.18586 l -0.293194,0.16231 q -0.05759,-0.0995 -0.143979,-0.16754 -0.08377,-0.0707 -0.209424,-0.0707 -0.109948,0 -0.164921,0.0524 -0.05497,0.0497 -0.05497,0.1178 0,0.1021 0.102094,0.17016 0.102094,0.0681 0.3089,0.13874 0.117801,0.0419 0.222513,0.11257 0.10733,0.0707 0.172775,0.18063 0.06806,0.10733 0.06806,0.26439 0,0.17801 -0.09162,0.30367 -0.09162,0.12565 -0.23822,0.19372 -0.146597,0.0654 -0.311518,0.0654 -0.167539,0 -0.314136,-0.0654 -0.143979,-0.0654 -0.251309,-0.17278 -0.10733,-0.10733 -0.167539,-0.23822 z m 2.463631,-1.21728 h 0.379581 v 1.83246 H 88.80688 Z m 2.125934,0.91623 q 0,0.18325 0.08115,0.31676 0.08115,0.1335 0.21466,0.2068 0.136125,0.0707 0.293193,0.0707 0.193718,0 0.329843,-0.0733 0.138744,-0.0733 0.230367,-0.17801 v 0.42146 q -0.112566,0.089 -0.246074,0.13874 -0.13089,0.0497 -0.33246,0.0497 -0.209424,0 -0.390052,-0.0681 -0.178011,-0.0707 -0.311519,-0.19634 -0.13089,-0.12827 -0.204188,-0.30104 -0.07068,-0.17539 -0.07068,-0.38744 0,-0.21204 0.07068,-0.38481 0.0733,-0.1754 0.204188,-0.30105 0.133508,-0.12827 0.311519,-0.19634 0.180628,-0.0707 0.390052,-0.0707 0.20157,0 0.33246,0.0497 0.133508,0.0497 0.246074,0.13875 v 0.42146 q -0.09162,-0.10471 -0.230367,-0.17801 -0.136125,-0.0733 -0.329843,-0.0733 -0.157068,0 -0.293193,0.0733 -0.133508,0.0707 -0.21466,0.20419 -0.08115,0.13351 -0.08115,0.31675 z"
         id="text12-9-2"
         transform="scale(0.98824774,1.011892)"
         aria-label="MUSIC" />
    </g>
  </g>
  <metadata
     id="metadata1">
    <rdf:RDF>
      <cc:Work
         rdf:about="">
        <dc:title>DRY.FM Logo</dc:title>
      </cc:Work>
    </rdf:RDF>
  </metadata>
</svg>
